<?xml version="1.0" encoding="utf-8"?>
<svg viewBox="0 0 729 277" xmlns="http://www.w3.org/2000/svg">
  <path d="M 725.881 115.874 C 700.527 129.439 675.844 144.405 649.595 156.145 C 636.235 162.12 619.149 169.903 613.348 176.723 C 612.522 177.694 607.64 181.194 609.169 186.574 C 610.413 190.951 620.808 187.68 622.997 186.965 C 634.72 183.135 639.58 173.105 644.334 162.663 C 651.865 146.123 643.203 119.934 647.125 102.595 C 648.671 95.761 649.667 89.623 654.687 82.983 C 659.298 76.884 669.424 75.901 674.78 80.059 C 694.892 95.673 632.404 144.255 622.731 153.635 C 614.561 161.558 604.072 171.831 593.257 179.215 C 587.29 183.289 580.935 182.851 577.639 178.358 C 575.04 174.815 574.22 171.189 574.916 167.727 C 577.297 155.879 580.461 144.195 582.729 132.325 C 583.2 129.861 586.018 116.207 578.315 117.129 C 576.634 117.33 574.721 118.837 573.552 119.958 C 554.874 137.879 536.862 156.511 517.662 173.872 C 513.487 177.647 508.981 184.849 503.596 183.213 C 499.399 181.938 504.407 174.428 505.606 170.209 C 505.802 169.521 525.101 121.151 518.785 125.277 C 496.745 139.674 485.475 166.551 465.035 183.142 C 457.144 189.547 446.088 193.757 436.008 192.467 C 422.61 190.753 423.096 184.888 417.862 188.232 C 413.65 190.923 417.052 195.081 419.268 203.161 C 421.082 209.774 418.263 227.184 414.894 238.948 C 412.653 246.772 410.819 250.345 403.053 262.244 C 399.716 267.358 392.092 276.563 386.087 273.429 C 374.926 267.603 377.537 255.277 385.113 235.672 C 391.238 219.822 417.262 152.564 436.49 112.685 C 443.828 97.467 451.196 82.219 459.784 67.67 C 469.796 50.707 479.592 33.393 492.217 18.274 C 497.841 11.538 505.005 2.026 513.716 3.081 C 517.099 3.491 518.927 3.354 519.692 7.825 C 520.887 14.805 518.558 22.173 515.86 28.72 C 506.27 51.987 487.399 71.965 470.53 89.759 C 470.044 90.272 450.998 108.309 443.789 115.135 C 443.065 115.822 414.456 142.072 413.704 142.528 L 346.054 142.549 C 345.849 151.609 344.116 160.347 340.162 168.557 C 336.818 175.5 332.123 181.775 326.421 186.957 C 288.991 220.978 229.887 194.631 226.156 145.633 M 226.542 145.121 L 281.679 144.92 C 285.177 150.688 293.729 145.527 290.218 139.772 L 322.285 107.483 C 323.629 105.922 321.269 104.168 319.967 105.669 L 288.017 137.915 C 285.708 137.092 283.407 137.778 281.93 139.736 L 254.937 122.658 L 229.886 122.593 C 204.341 136.205 180.489 151.608 154.24 163.348 C 140.88 169.323 127.611 174.752 118.626 184.572 C 117.765 185.513 112.499 191.036 113.814 193.777 C 118.634 203.827 139.066 187.808 142.256 183.298 C 154.281 166.3 151.441 143.989 151.603 124.359 C 151.643 119.505 151.368 114.635 151.77 109.798 C 152.832 97.015 154.776 95.509 159.332 90.186 C 164.183 84.519 183.497 80.593 182.79 93.033 C 181.129 122.268 150.995 136.911 128.87 150.544 C 110.652 161.77 92.732 173.554 73.84 183.604 C 60.639 190.627 6.987 223.012 3.146 182.793 C 2.486 175.881 4.185 168.884 5.8 162.131 C 8.966 148.893 14.128 139.314 19.794 127.375 M 326.42 98.132 C 302.925 77.768 269.231 77.777 245.735 98.132 M 34.638 109.137 C 43.997 102.023 53.355 94.908 62.714 87.794" style="white-space: pre; fill: none; stroke-linecap: round; stroke-linejoin: round; stroke: currentColor; stroke-width: 6px;"/>
</svg>