<?xml version="1.0" encoding="utf-8"?>
<svg viewBox="-37.764 -2.166 539.359 520.825" xmlns="http://www.w3.org/2000/svg">
  <path stroke-width="0" d="M 449.666 333.219 C 430.39 472.505 185.244 486.62 112.269 426.653 C 62.736 385.95 -35.169 192.306 69.498 102.454 C 216.755 -23.959 497.614 -13.251 449.666 333.219 Z" style="stroke-width: 2px; fill: rgb(242, 242, 242);"/>
  <g id="layer1" transform="matrix(1, 0, 0, 1, 80.07885, 77.309471)">
    <g transform="matrix(0.237384,0.000000,0.000000,-0.237384,65.48462,354.2623)" id="g8">
      <path d="M 958.527 378.833 L 994.527 378.833 C 994.527 273.5 977.527 196.833 943.527 148.833 C 909.527 100.833 866.527 76.833 814.527 76.833 C 772.527 76.833 732.194 92.5 693.527 123.833 C 654.86 155.167 620.194 240.167 589.527 378.833 L 503.527 766.833 L 205.527 90.833 L 16.527 90.833 L 444.527 1012.833 C 421.86 1132.167 394.527 1220.5 362.527 1277.833 C 330.527 1335.167 290.86 1363.833 243.527 1363.833 C 205.527 1363.833 172.527 1349.5 144.527 1320.833 C 116.527 1292.167 100.527 1247.167 96.527 1185.833 L 60.527 1185.833 C 62.527 1283.833 82.194 1362.167 119.527 1420.833 C 156.86 1479.5 203.527 1509.167 259.527 1509.833 C 295.527 1509.833 329.527 1495.167 361.527 1465.833 C 393.527 1436.5 421.527 1385.833 445.527 1313.833 C 469.527 1241.833 506.527 1093.167 556.527 867.833 L 627.527 550.833 C 656.194 419.5 686.194 331.833 717.527 287.833 C 748.86 243.833 786.86 221.5 831.527 220.833 C 906.194 220.833 948.527 273.5 958.527 378.833 Z" id="path10" style="fill: rgb(255, 193, 7);"/>
    </g>
  </g>
  <g transform="matrix(0.470595, 0.697687, -0.547147, 0.369055, 217.042068, -359.130646)" style=""/>
</svg>