<?xml version="1.0" encoding="utf-8"?>
<svg viewBox="0 0 500 500" xmlns="http://www.w3.org/2000/svg">
  <path stroke-width="0" d="M 465.546 334.399 C 446.27 473.685 201.124 487.8 128.149 427.833 C 78.616 387.13 -19.289 193.486 85.378 103.634 C 232.635 -22.779 513.494 -12.071 465.546 334.399 Z" style="stroke-width: 2px; fill: rgb(242, 242, 242);" transform="matrix(0.034899, 0.999391, -0.999391, 0.034899, 491.439075, -17.814278)"/>
  <g style="" transform="matrix(1.500021, 0, 0, 2.02331, -65.394012, -287.15979)">
    <g transform="matrix(1, 0, 0, 1, -155.90274, -41.053299)">
      <g>
        <g id="g472" transform="matrix(1.333333, 0, 0, -1.333333, 173.068497, 309.493805)"/>
        <g id="g476" transform="matrix(1.333333, 0, 0, -1.333333, 237.321686, 310.613678)">
          <path d="M 0 0 C -0.3 0.44 -0.63 1.021 -1.01 1.681 C -1.82 3.101 -2.84 4.851 -4.02 6.16 C -5.11 7.37 -6.07 7.9 -7.58 8.13 C -7.62 8.13 -7.66 8.12 -7.71 8.13 C -8.14 8.19 -8.896 8.61 -8.91 8.21 C -9.05 4.234 -8.942 -1.144 -8.504 -1.89 C -8.221 -2.372 -7.01 -2.99 -6.92 -3.05 C -6.92 -3.05 -0.87 -5.66 3.36 -3.35 C 2.37 -2.569 0.83 -1.229 0 0" style="fill-opacity: 1; fill-rule: nonzero; stroke: none; fill: rgb(255, 193, 7);" id="path478"/>
        </g>
        <g id="g480" transform="matrix(1.333333, 0, 0, -1.333333, 406.668091, 309.293274)">
          <path d="M 0,0 C 1.72,-0.51 3.811,-0.47 6.101,0.3 5.25,1.24 3.96,2.82 3.37,4.16 3.16,4.65 2.94,5.27 2.69,5.99 c -0.53,1.5 -1.15,3.45 -2,4.97 -0.79,1.4 -1.57,2.11 -2.919,2.63 -0.041,0.02 -0.081,0.01 -0.121,0.03 -0.71,0.26 -1.42,0.41 -2.1,0.47 -0.67,0.09 -1.31,0.11 -1.909,0.08 C -7.55,14.1 -8.56,13.83 -9.189,13.62 H -9.2 C -8.569,12.11 -8.12,10.43 -7.729,9.03 -7.54,8.33 -7.37,7.71 -7.2,7.24 -6.72,5.83 -5.35,4.09 -4.66,3.26 l 0.011,0.02 C -4.58,3.2 -4.52,3.12 -4.47,3.06 -4.35,2.93 -4.27,2.84 -4.229,2.79 -4.16,2.71 -4.09,2.63 -4.01,2.54 V 2.53 C -3.1,1.49 -1.729,0.53 0,0" style="fill-opacity: 1; fill-rule: nonzero; stroke: none; fill: rgb(255, 193, 7);" id="path482"/>
        </g>
        <g id="g484" transform="matrix(1.333333, 0, 0, -1.333333, 447.575684, 312.893524)">
          <path d="m 0,0 c -0.91,0.88 -2.32,2.36 -3.011,3.65 -0.25,0.47 -0.519,1.08 -0.83,1.781 -0.659,1.479 -1.46,3.319 -2.47,4.729 -0.919,1.3 -1.889,1.901 -3.299,2.33 -2.97,0.821 -5.741,-0.19 -6.97,-0.76 h -0.011 c 0.82,-1.419 1.471,-3.03 2.011,-4.37 0.269,-0.67 0.51,-1.27 0.729,-1.71 0.64,-1.299 2.371,-3.08 3.13,-3.839 0.071,-0.071 0.471,-0.431 0.55,-0.5 V 1.3 C -8.171,-0.62 -4.41,-1.89 0,0" style="fill-opacity: 1; fill-rule: nonzero; stroke: none; fill: rgb(255, 193, 7);" id="path486"/>
        </g>
        <g id="g488" transform="matrix(1.333333, 0, 0, -1.333333, 431.14859, 311.267273)">
          <path d="m 0,0 c -0.88,0.91 -2.24,2.44 -2.88,3.761 -0.24,0.479 -0.49,1.09 -0.77,1.8 -0.6,1.5 -1.33,3.37 -2.28,4.809 -0.87,1.33 -1.69,2.04 -3.08,2.5 -0.04,0.011 -0.08,0.011 -0.12,0.021 -0.92,0.299 -1.83,0.41 -2.67,0.41 -1.83,0 -3.37,-0.53 -4.221,-0.861 h -0.009 c 0.73,-1.49 1.31,-3.089 1.79,-4.46 0.23,-0.669 0.45,-1.269 0.639,-1.719 0.58,-1.33 2.031,-3.05 2.761,-3.84 l 0.01,0.029 c 0.07,-0.08 0.14,-0.16 0.2,-0.22 0.12,-0.129 0.21,-0.219 0.25,-0.259 0.08,-0.08 0.15,-0.16 0.23,-0.241 V 1.721 C -8.23,-0.359 -4.49,-1.72 0,0" style="fill-opacity: 1; fill-rule: nonzero; stroke: none; fill: rgb(255, 193, 7);" id="path490"/>
        </g>
        <g id="g492" transform="matrix(1.333333, 0, 0, -1.333333, 453.54834, 299.853271)">
          <path d="M 0,0 C -0.22,0.38 -0.41,0.82 -0.32,1.25 -1.63,1.45 -2.979,1.78 -4.31,1.78 -5.29,1.78 -6.26,1.62 -7.19,1.34 -7.56,1.229 -7.93,1.1 -8.29,0.96 -8.53,0.86 -8.87,0.6 -9.13,0.57 c 0.87,-1.39 1.59,-2.98 2.18,-4.3 0.94,-2.11 2.29,-4.26 4.21,-5.62 1.45,-1.04 3.37,-1.5 5.14,-1.461 C 1.74,-8.29 2.32,-5.561 3.55,-3.26 2.06,-2.59 0.8,-1.43 0,0" style="fill-opacity: 1; fill-rule: nonzero; stroke: none; fill: rgb(255, 193, 7);" id="path494"/>
        </g>
        <g id="g496" transform="matrix(1.333333, 0, 0, -1.333333, 406.121124, 281.919678)">
          <path d="m 0,0 c -0.989,0.6 -2.149,0.83 -3.27,1.069 -1.139,0.25 -1.719,0.231 -2.82,-0.29 -1,-0.479 -1.93,-1.099 -2.76,-1.84 -0.41,-0.379 -0.79,-0.779 -1.139,-1.21 -0.131,-0.16 -0.761,-1.25 -0.901,-1.259 0.491,0.03 0.96,-0.241 1.29,-0.611 0.321,-0.37 0.52,-0.83 0.72,-1.29 0.76,0.67 1.7,1.12 2.7,1.281 0.66,0.11 1.33,0.1 1.991,0.07 1.219,-0.07 2.469,-0.24 3.559,-0.79 1.05,-0.53 1.91,-1.41 2.42,-2.46 0.731,0.45 1.28,1.04 1.9,1.62 0.451,0.399 0.951,1.34 1.451,1.62 -1.3,1.079 -2.58,2.13 -3.641,3 C 0.931,-0.62 0.42,-0.24 0,0" style="fill-opacity: 1; fill-rule: nonzero; stroke: none; fill: rgb(255, 193, 7);" id="path498"/>
        </g>
        <g id="g500" transform="matrix(1.333333, 0, 0, -1.333333, 419.095123, 288.133148)">
          <path d="m 0,0 c 0.03,0 0.06,0.02 0.1,0.02 0.65,0.01 1.29,0.05 1.87,0.2 0.59,0.13 1.12,0.37 1.63,0.55 1.02,0.4 1.85,0.94 2.37,1.32 L 5.979,2.1 C 5.04,3.37 4.149,4.85 3.37,6.08 2.99,6.7 2.63,7.25 2.32,7.62 1.43,8.729 -0.55,10.01 -1.58,10.5 v -0.03 c -0.1,0.05 -0.2,0.1 -0.28,0.13 -0.17,0.08 -0.29,0.129 -0.35,0.15 -0.101,0.05 -0.21,0.1 -0.32,0.149 -0.68,0.29 -1.48,0.521 -2.37,0.631 -0.89,0.06 -1.871,-0.01 -2.89,-0.22 C -8.82,11.12 -9.851,10.6 -10.87,10 -11.88,9.39 -12.811,8.439 -13.64,7.41 -12.22,7.21 -10.13,6.82 -8.86,5.939 -8.41,5.64 -7.88,5.22 -7.3,4.729 -6.07,3.729 -4.62,2.28 -3.32,1.3 -2.14,0.42 -1.23,-0.04 0,0" style="fill-opacity: 1; fill-rule: nonzero; stroke: none; fill: rgb(255, 193, 7);" id="path502"/>
        </g>
        <g id="g504" transform="matrix(1.333333, 0, 0, -1.333333, 374.135529, 300.466461)">
          <path d="M 0,0 C 1.649,-0.75 3.729,-1.15 6.14,-0.65 5.42,0.399 4.34,2.12 3.97,3.57 3.83,4.09 3.71,4.75 3.569,5.5 3.279,7.1 2.949,9.09 2.34,10.689 1.79,12.17 1.13,13.02 -0.12,13.75 c -0.03,0.02 -0.07,0.02 -0.11,0.04 -1.31,0.74 -2.701,1.08 -3.92,1.189 -1.22,0.111 -2.27,0 -2.96,-0.109 H -7.12 C -6.65,13.26 -6.46,11.54 -6.271,10.1 -6.19,9.39 -6.11,8.75 -6.011,8.27 -5.74,6.83 -4.7,4.85 -4.141,3.93 l 0.01,0.03 C -4.07,3.87 -4.021,3.77 -3.98,3.7 -3.881,3.55 -3.811,3.439 -3.78,3.39 -3.721,3.3 -3.67,3.21 -3.61,3.11 V 3.1 C -2.87,1.92 -1.67,0.74 0,0" style="fill-opacity: 1; fill-rule: nonzero; stroke: none; fill: rgb(255, 193, 7);" id="path506"/>
        </g>
        <g id="g508" transform="matrix(1.333333, 0, 0, -1.333333, 433.054749, 287.773804)">
          <path d="m 0,0 c 0.04,-0.01 0.07,-0.01 0.11,-0.02 v 0.01 C 0.76,-0.199 1.4,-0.25 2,-0.26 c 0.59,-0.03 1.16,0.01 1.7,0.101 1.071,0.21 1.95,0.439 2.53,0.67 H 6.24 C 5.73,2.021 5.28,3.7 4.83,5.04 4.61,5.721 4.4,6.32 4.2,6.78 3.9,7.44 3.37,8.25 2.79,8.91 2.21,9.57 1.58,10.17 1.16,10.54 v -0.029 c -0.08,0.08 -0.17,0.159 -0.23,0.21 -0.14,0.12 -0.25,0.21 -0.3,0.25 -0.08,0.08 -0.17,0.149 -0.26,0.229 -1.13,0.96 -2.76,1.63 -4.72,1.84 -0.98,0.051 -2.04,-0.029 -3.12,-0.29 -1.08,-0.22 -2.219,-0.79 -3.3,-1.47 1.2,-0.67 2.96,-1.78 3.85,-3.019 0.33,-0.441 0.691,-1 1.09,-1.651 C -4.979,5.23 -4.02,3.521 -2.99,2.15 -2.05,0.88 -1.24,0.4 0,0" style="fill-opacity: 1; fill-rule: nonzero; stroke: none; fill: rgb(255, 193, 7);" id="path510"/>
        </g>
        <g id="g512" transform="matrix(1.333333, 0, 0, -1.333333, 311.468872, 314.532867)">
          <path d="M 0,0 C 0.859,-0.38 1.569,-0.67 2.29,-1.311 2.939,-1.88 3.369,-2.69 3.479,-3.551 4.939,-3.78 6.77,-3.15 8.069,-2.561 7.189,-1.681 5.81,-0.21 5.1,1.06 4.84,1.529 4.56,2.13 4.239,2.819 3.56,4.29 2.689,6.109 1.619,7.5 1.38,7.8 1.14,8.09 0.869,8.35 0.81,8.41 0.159,8.79 0.149,8.819 0.689,6.56 1.189,4.21 0.699,1.949 0.55,1.27 0.319,0.609 0,0" style="fill-opacity: 1; fill-rule: nonzero; stroke: none; fill: rgb(255, 193, 7);" id="path514"/>
        </g>
        <g id="g516" transform="matrix(1.333333, 0, 0, -1.333333, 290.201935, 315.946991)">
          <path d="m 0,0 c -0.931,0.83 -2.391,2.24 -3.16,3.48 -0.28,0.46 -0.58,1.041 -0.941,1.72 -0.75,1.43 -1.689,3.22 -2.819,4.56 -1.04,1.24 -1.98,1.801 -3.471,2.07 -0.049,0.01 -0.089,0 -0.13,0 -0.509,0.09 -1,0.12 -1.469,0.12 -2.48,0 -4.5,-1.01 -5.48,-1.59 l -0.01,-0.009 c 1.01,-1.321 1.86,-2.841 2.54,-4.121 0.35,-0.629 0.65,-1.19 0.91,-1.61 0.78,-1.21 2.44,-2.71 3.25,-3.39 V 1.26 C -10.7,1.19 -10.62,1.12 -10.561,1.061 -10.42,0.96 -10.33,0.88 -10.28,0.84 -10.2,0.771 -10.12,0.7 -10.03,0.641 V 0.63 C -7.91,-1.12 -4.21,-2.109 0,0" style="fill-opacity: 1; fill-rule: nonzero; stroke: none; fill: rgb(255, 193, 7);" id="path518"/>
        </g>
        <g id="g520" transform="matrix(1.333333, 0, 0, -1.333333, 443.362091, 287.160492)">
          <path d="M 0,0 C 0.25,-0.739 0.5,-1.29 0.819,-1.739 1.14,-2.18 1.54,-2.52 2,-2.89 2.029,-2.909 2.06,-2.92 2.09,-2.939 3.14,-3.609 4.14,-3.989 5.149,-4.149 6.08,-4.359 6.989,-4.39 7.59,-4.38 L 7.6,-4.39 C 7.76,-2.88 8,-1.189 8.12,0.271 8.16,0.98 8.18,1.61 8.149,2.11 8.109,2.83 7.87,3.75 7.54,4.62 7.199,5.44 6.779,6.221 6.489,6.721 L 6.47,6.69 C 6.42,6.79 6.359,6.9 6.31,6.971 6.21,7.141 6.14,7.25 6.1,7.311 6.04,7.41 5.97,7.511 5.91,7.62 5.489,8.261 4.92,8.841 4.22,9.41 3.859,9.69 3.47,9.96 3.06,10.21 c -0.43,0.23 -0.88,0.421 -1.361,0.591 -1.929,0.729 -4.319,0.84 -6.769,0 0.24,-0.231 0.519,-0.49 0.799,-0.78 C -3.99,9.71 -3.7,9.37 -3.431,9.021 -2.88,8.33 -2.391,7.58 -2.101,6.91 -1.9,6.41 -1.681,5.811 -1.471,5.051 -1.021,3.46 -0.57,1.54 0,0" style="fill-opacity: 1; fill-rule: nonzero; stroke: none; fill: rgb(255, 193, 7);" id="path522"/>
        </g>
        <g id="g524" transform="matrix(1.333333, 0, 0, -1.333333, 389.334747, 336.65274)">
          <path d="M 0,0 C 1.5,-0.971 3.63,-1.69 6.25,-1.551 5.55,-0.4 4.63,1.51 4.46,2.979 4.391,3.51 4.351,4.17 4.32,4.939 4.26,6.56 4.23,8.56 3.82,10.27 3.431,11.84 2.82,12.779 1.5,13.689 1.47,13.72 1.42,13.729 1.38,13.75 -0.6,15.09 -2.77,15.43 -4.359,15.43 -5.03,15.43 -5.59,15.369 -6,15.3 h -0.01 c 0.54,-1.601 0.781,-3.37 0.941,-4.8 C -4.99,9.779 -4.93,9.149 -4.859,8.659 -4.63,7.22 -3.78,5.229 -3.38,4.27 L -3.359,4.3 C -3.319,4.199 -3.28,4.109 -3.25,4.039 -3.18,3.88 -3.13,3.77 -3.1,3.72 -3.06,3.63 -3.02,3.529 -2.979,3.439 V 3.43 C -2.43,2.21 -1.479,0.97 0,0" style="fill-opacity: 1; fill-rule: nonzero; stroke: none; fill: rgb(255, 193, 7);" id="path526"/>
        </g>
        <g id="g528" transform="matrix(1.333333, 0, 0, -1.333333, 452.748901, 338.013397)">
          <path d="m 0,0 c 0.12,-0.02 0.229,-0.04 0.35,-0.06 h 0.009 c 1.5,-0.27 3.42,0.05 5.34,1.1 C 7.56,2.16 9.439,4.05 10.27,6.81 9.56,6.64 8.699,6.39 7.76,6.36 6.84,6.31 5.93,6.36 5.21,6.54 4.699,6.66 4.05,6.91 3.34,7.22 1.819,7.87 0.12,8.74 -1.41,9.41 -2.101,9.71 -2.65,9.87 -3.181,9.94 -3.74,10.03 -4.25,10 -4.82,9.86 -4.86,9.85 -4.88,9.83 -4.91,9.82 -5.49,9.63 -6.101,9.49 -6.591,9.21 -7.091,8.94 -7.54,8.61 -7.98,8.33 -8.841,7.74 -9.48,6.99 -9.91,6.55 -8.761,5.44 -7.62,4.24 -6.58,3.2 -6.07,2.69 -5.601,2.22 -5.21,1.92 -4.101,1.06 -1.82,0.26 -0.69,0.09 L -0.7,0.11 C -0.591,0.09 -0.471,0.07 -0.391,0.05 -0.2,0.03 -0.061,0.01 0,0" style="fill-opacity: 1; fill-rule: nonzero; stroke: none; fill: rgb(255, 193, 7);" id="path530"/>
        </g>
        <g id="g532" transform="matrix(1.333333, 0, 0, -1.333333, 512.921936, 315.280334)">
          <path d="m 0,0 c -0.971,0.79 -2.5,2.13 -3.311,3.351 -0.29,0.449 -0.62,1.019 -1,1.689 -0.799,1.41 -1.779,3.17 -2.939,4.481 -1.061,1.209 -2.01,1.75 -3.48,1.989 -0.041,0 -0.081,-0.01 -0.121,0 -3.089,0.45 -5.679,-0.829 -6.839,-1.539 h -0.01 c 1,-1.33 1.849,-2.841 2.54,-4.111 0.349,-0.639 0.66,-1.2 0.93,-1.61 0.78,-1.22 2.48,-2.689 3.31,-3.35 v 0.031 c 0.08,-0.071 0.16,-0.141 0.23,-0.191 0.14,-0.099 0.23,-0.179 0.28,-0.219 0.09,-0.061 0.17,-0.13 0.26,-0.191 V 0.32 C -7.971,-1.359 -4.17,-2.31 0,0" style="fill-opacity: 1; fill-rule: nonzero; stroke: none; fill: rgb(255, 193, 7);" id="path534"/>
        </g>
        <g id="g536" transform="matrix(1.333333, 0, 0, -1.333333, 467.774902, 326.213959)">
          <path d="M 0,0 C 0.12,0.04 0.23,0.091 0.351,0.141 H 0.36 C 1.08,0.45 1.89,0.9 2.58,1.601 3.3,2.29 4.01,3.131 4.5,4.21 5.601,6.28 5.94,9.19 4.98,11.95 4.58,11.341 3.92,10.631 3.22,10.011 2.88,9.7 2.521,9.41 2.16,9.171 1.79,8.931 1.4,8.74 1.05,8.601 0.53,8.4 -0.12,8.23 -0.86,8.07 -1.62,7.891 -2.56,7.771 -3.439,7.671 -4.34,7.561 -5.149,7.45 -5.979,7.381 -6.72,7.301 -7.27,7.2 -7.72,7.021 -8.2,6.86 -8.61,6.641 -8.979,6.301 -9.01,6.28 -9.01,6.25 -9.03,6.23 -9.439,5.87 -9.82,5.511 -10.07,5.091 -10.34,4.671 -10.63,4.28 -10.82,3.841 -11,3.391 -11.2,2.99 -11.36,2.61 c -0.15,-0.38 -0.27,-0.74 -0.35,-1.03 1.39,-0.58 3,-1.359 4.311,-1.819 0.659,-0.25 1.279,-0.45 1.769,-0.561 0.36,-0.08 0.78,-0.12 1.231,-0.139 0.439,0 0.899,0.04 1.349,0.099 0.91,0.141 1.84,0.33 2.39,0.55 l -0.02,0.02 c 0.11,0.041 0.22,0.081 0.31,0.111 0.181,0.08 0.31,0.13 0.37,0.159" style="fill-opacity: 1; fill-rule: nonzero; stroke: none; fill: rgb(255, 193, 7);" id="path538"/>
        </g>
        <g id="g540" transform="matrix(1.333333, 0, 0, -1.333333, 27.481964, 315.079803)"/>
        <g id="g544" transform="matrix(1.333333, 0, 0, -1.333333, -5.491362, 315.079803)"/>
        <g id="g548" transform="matrix(1.333333, 0, 0, -1.333333, 93.428497, 315.079803)"/>
        <g id="g552" transform="matrix(1.333333, 0, 0, -1.333333, 175.854889, 315.079803)"/>
        <g id="g556" transform="matrix(1.333333, 0, 0, -1.333333, 60.455162, 315.079803)"/>
        <g id="g560" transform="matrix(1.333333, 0, 0, -1.333333, 364.14859, 289.84021)">
          <path d="m 0,0 c -0.101,0.521 -0.18,1.18 -0.28,1.94 -0.19,1.61 -0.44,3.61 -1.04,5.27 -0.27,0.77 -0.59,1.37 -1,1.88 -0.44,0.5 -0.98,0.91 -1.69,1.301 -0.04,0.019 -0.08,0.019 -0.12,0.049 v -0.01 c -1.46,0.82 -3.11,1.08 -4.48,1.131 -1.35,0.069 -2.531,-0.221 -3.241,-0.441 0.401,-0.769 0.741,-1.55 1.011,-2.33 0.26,-0.8 0.46,-1.6 0.63,-2.31 0.16,-0.709 0.3,-1.33 0.43,-1.8 0.19,-0.7 0.56,-1.51 0.929,-2.25 C -8.48,1.65 -8.09,0.94 -7.84,0.5 l 0.01,0.021 c 0.05,-0.091 0.1,-0.181 0.14,-0.25 0.089,-0.141 0.15,-0.25 0.18,-0.301 0.05,-0.079 0.1,-0.18 0.15,-0.27 1.17,-2.04 3.77,-4.15 7.81,-4.15 0.44,0 0.89,0.03 1.36,0.08 C 1.18,-3.27 0.28,-1.439 0,0" style="fill-opacity: 1; fill-rule: nonzero; stroke: none; fill: rgb(255, 193, 7);" id="path562"/>
        </g>
        <g id="g564" transform="matrix(1.333333, 0, 0, -1.333333, 378.002777, 310.315399)">
          <path d="m 0,0 c 0.867,-0.746 1.421,-1.798 1.777,-2.885 0.384,0.406 1.063,0.447 1.62,0.445 0.387,-0.003 0.778,-0.005 1.159,-0.076 0.404,-0.075 0.79,-0.225 1.173,-0.375 0.478,-0.187 0.971,-0.348 1.45,-0.536 h 0.153 c 1.356,1.281 2.279,2.996 2.642,4.83 C 9.279,1.057 8.453,1.387 7.75,1.716 7.149,1.997 6.532,2.29 6.083,2.778 5.839,3.044 5.652,3.359 5.403,3.62 4.925,4.126 4.371,4.069 3.729,4.053 1.812,4.013 0.006,3.332 -1.633,2.436 -2.292,2.075 -2.84,1.514 -3.185,0.846 -2.081,1.146 -0.866,0.746 0,0" style="fill-opacity: 1; fill-rule: nonzero; stroke: none; fill: rgb(255, 193, 7);" id="path566"/>
        </g>
        <g id="g568" transform="matrix(1.333333, 0, 0, -1.333333, 460.522217, 303.066742)">
          <path d="M 0,0 0.01,-0.01 C 1.079,1.11 2.13,2.37 3,3.54 3.439,4.13 3.8,4.67 4.01,5.1 4.34,5.75 4.579,6.67 4.71,7.61 4.819,8.53 4.79,9.43 4.76,10.04 L 4.729,10.021 c 0,0.119 -0.009,0.239 -0.019,0.329 -0.011,0.211 -0.03,0.35 -0.04,0.421 0,0.119 -0.011,0.25 -0.04,0.369 -0.12,0.76 -0.38,1.61 -0.801,2.48 -0.43,0.86 -1.079,1.67 -1.859,2.47 -0.79,0.75 -1.79,1.38 -2.891,1.91 -1.149,0.43 -2.39,0.79 -3.75,0.811 0.341,-0.571 0.711,-1.441 1,-2.29 0.29,-0.861 0.511,-1.691 0.521,-2.46 C -3.15,13.5 -3.2,12.83 -3.28,12.07 -3.381,11.26 -3.5,10.38 -3.641,9.5 -3.801,8.6 -3.96,7.71 -4.051,6.92 -4.12,6.21 -4.181,5.61 -4.141,5.09 -4.11,4.561 -3.9,4.16 -3.721,3.66 -3.7,3.63 -3.681,3.61 -3.671,3.59 -3.171,2.61 -2.53,1.91 -1.841,1.34 -1.521,1.04 -1.16,0.79 -0.82,0.57 -0.511,0.35 -0.24,0.15 0,0" style="fill-opacity: 1; fill-rule: nonzero; stroke: none; fill: rgb(255, 193, 7);" id="path570"/>
        </g>
        <g id="g572" transform="matrix(1.333333, 0, 0, -1.333333, 398.481934, 305.720337)">
          <path d="M 0,0 C -0.8,0.96 -1.99,2.67 -2.48,4.061 -2.66,4.57 -2.84,5.21 -3.04,5.95 -3.46,7.521 -3.96,9.46 -4.7,11 -5.4,12.41 -6.101,13.221 -7.391,13.851 -7.43,13.87 -7.47,13.87 -7.5,13.88 c -1.36,0.66 -2.74,0.81 -3.93,0.85 -1.18,0.031 -2.2,-0.15 -2.85,-0.31 h -0.01 c 0.49,-1.56 0.81,-3.27 1.07,-4.699 0.14,-0.721 0.25,-1.361 0.39,-1.821 0.38,-1.389 1.6,-3.28 2.229,-4.16 l 0.011,0.021 c 0.06,-0.08 0.13,-0.181 0.17,-0.24 0.109,-0.151 0.19,-0.25 0.22,-0.3 0.07,-0.08 0.13,-0.17 0.2,-0.261 V 2.95 C -9.58,2.391 -9.05,1.83 -8.4,1.34 -7.75,0.87 -7,0.46 -6.141,0.16 -4.43,-0.42 -2.34,-0.68 0,0" style="fill-opacity: 1; fill-rule: nonzero; stroke: none; fill: rgb(255, 193, 7);" id="path574"/>
        </g>
        <g id="g576" transform="matrix(1.333333, 0, 0, -1.333333, 340.494873, 319.333679)">
          <path d="m 0,0 c 0.07,-0.069 0.14,-0.149 0.22,-0.229 1.35,-1.38 3.47,-2.51 6.15,-2.51 1.08,0 2.26,0.179 3.52,0.609 C 9.12,-1.18 7.9,0.44 7.311,1.761 7.1,2.24 6.88,2.87 6.62,3.58 6.07,5.11 5.36,7 4.38,8.49 3.48,9.84 2.49,10.511 1.021,10.95 -2.11,11.851 -4.95,10.771 -6.18,10.21 H -6.189 C -5.3,8.79 -4.6,7.19 -4.04,5.851 -3.76,5.19 -3.52,4.601 -3.3,4.16 -2.64,2.88 -1.1,1.15 -0.39,0.391 -0.27,0.261 -0.05,0.05 0,0" style="fill-opacity: 1; fill-rule: nonzero; stroke: none; fill: rgb(255, 193, 7);" id="path578"/>
        </g>
        <g id="g580" transform="matrix(1.333333, 0, 0, -1.333333, 312.188873, 278.639679)">
          <path d="m 0,0 c 1.729,-0.53 3.27,-1.53 4.409,-2.37 0.58,-0.43 1.08,-0.86 1.471,-1.151 0.58,-0.439 1.349,-0.87 2.05,-1.25 0.689,-0.399 1.36,-0.79 1.799,-1.04 L 9.72,-5.79 c 0.08,-0.04 0.17,-0.09 0.229,-0.13 0.141,-0.07 0.24,-0.13 0.28,-0.15 0.081,-0.05 0.17,-0.09 0.25,-0.14 l 0.01,-0.011 c 0.521,-0.289 1.12,-0.619 1.74,-0.8 0.311,-0.099 0.63,-0.169 0.951,-0.209 0.34,-0.081 0.689,-0.13 1.04,-0.15 1.38,0.01 3.099,0.21 5.009,1.35 -0.799,0.8 -2.169,2.179 -2.959,3.42 -0.281,0.469 -0.621,1.04 -1.01,1.69 C 14.43,0.43 13.279,2.149 11.81,3.319 11.14,3.83 10.489,4.18 9.779,4.38 9.079,4.6 8.319,4.67 7.399,4.54 7.35,4.529 7.31,4.51 7.26,4.5 5.34,4.31 3.68,3.43 2.46,2.59 1.25,1.609 0.43,0.689 0.02,0.01 Z" style="fill-opacity: 1; fill-rule: nonzero; stroke: none; fill: rgb(255, 193, 7);" id="path582"/>
        </g>
        <g id="g584" transform="matrix(1.333333, 0, 0, -1.333333, 306.988373, 280.519928)">
          <path d="M 0,0 C -0.38,-0.09 -0.76,-0.22 -1.14,-0.4 -1.521,-0.58 -1.88,-0.84 -2.28,-1.13 -2.32,-1.16 -2.35,-1.21 -2.4,-1.24 -2.8,-1.561 -3.19,-1.89 -3.54,-2.23 -3.86,-2.6 -4.16,-2.98 -4.43,-3.36 -4.7,-3.74 -4.95,-4.11 -5.17,-4.48 -5.36,-4.88 -5.521,-5.26 -5.66,-5.63 -6.271,-7.1 -6.33,-8.43 -6.35,-9.22 v -0.01 c 0.88,0.27 1.77,0.43 2.6,0.51 0.85,0.07 1.69,0.04 2.42,-0.01 0.7,-0.06 1.32,-0.11 1.82,-0.15 1.48,-0.11 3.47,0.03 4.42,-0.05 l -0.02,0.02 c 0.089,-0.01 0.19,-0.01 0.26,-0.01 0.15,0 0.25,-0.01 0.3,-0.01 0.09,0 0.18,0 0.279,-0.01 0.231,-0.02 0.461,-0.02 0.701,-0.02 0.96,0 1.91,0.14 2.84,0.52 0.55,0.28 1.18,0.54 1.72,1.07 0.6,0.44 1.18,1.07 1.83,1.87 C 12.32,-5.2 11.7,-4.91 11,-4.521 10.32,-4.15 9.57,-3.7 9,-3.33 8.56,-3.01 8.04,-2.64 7.43,-2.21 6.08,-1.24 4.31,-0.271 2.39,0.08 1.5,0.25 0.76,0.18 0,0" style="fill-opacity: 1; fill-rule: nonzero; stroke: none; fill: rgb(255, 193, 7);" id="path586"/>
        </g>
        <g id="g588" transform="matrix(1.333333, 0, 0, -1.333333, 324.014496, 316.946991)">
          <path d="M 0,0 V 0.03 L 0.21,-0.18 C 0.33,-0.29 0.421,-0.38 0.471,-0.42 0.54,-0.49 0.62,-0.56 0.7,-0.64 H 0.71 C 2.7,-2.49 6.221,-3.819 10.551,-2.04 9.721,-1.12 8.381,0.37 7.73,1.681 7.49,2.15 7.23,2.76 6.94,3.471 6.301,4.96 5.5,6.82 4.46,8.26 3.511,9.561 2.601,10.181 1.11,10.55 1.07,10.561 1.03,10.561 0.99,10.57 V 10.561 C -2.14,11.311 -4.89,10.181 -6.1,9.54 H -6.109 C -5.17,8.16 -4.42,6.59 -3.81,5.28 -3.5,4.62 -3.239,4.05 -3,3.62 -2.3,2.34 -0.76,0.73 0,0" style="fill-opacity: 1; fill-rule: nonzero; stroke: none; fill: rgb(255, 193, 7);" id="path590"/>
        </g>
        <g id="g592" transform="matrix(1.333333, 0, 0, -1.333333, 340.975433, 271.613678)">
          <path d="M 0,0 C -0.05,0.021 -0.101,0.01 -0.15,0.021 -1.04,0.26 -1.891,0.28 -2.69,0.221 -3.49,0.17 -4.24,0.04 -4.9,-0.13 -6.23,-0.43 -7.311,-1.05 -7.931,-1.45 H -7.95 c 0.63,-0.619 1.189,-1.29 1.67,-1.96 0.48,-0.69 0.9,-1.409 1.259,-2.04 0.361,-0.64 0.661,-1.199 0.92,-1.619 0.771,-1.241 2.29,-2.66 2.941,-3.471 v 0.03 c 0.059,-0.07 0.13,-0.15 0.18,-0.21 0.12,-0.12 0.19,-0.2 0.23,-0.25 0.069,-0.07 0.14,-0.139 0.2,-0.219 l 0.01,-0.011 c 0.43,-0.47 0.93,-0.9 1.5,-1.26 0.56,-0.35 1.18,-0.75 1.88,-0.97 0.689,-0.23 1.46,-0.33 2.33,-0.41 0.88,-0.07 1.84,0.061 2.939,0.271 -0.569,1.059 -1.489,2.71 -1.92,4.13 C 6.04,-8.93 5.899,-8.26 5.71,-7.529 5.29,-6 4.68,-4.05 3.66,-2.49 2.72,-1.04 1.67,-0.45 0,0" style="fill-opacity: 1; fill-rule: nonzero; stroke: none; fill: rgb(255, 193, 7);" id="path594"/>
        </g>
        <g id="g596" transform="matrix(1.333333, 0, 0, -1.333333, 355.535278, 321.306335)">
          <path d="M 0,0 C 0.06,-0.08 0.13,-0.16 0.18,-0.221 0.29,-0.351 0.37,-0.44 0.41,-0.49 0.479,-0.561 0.55,-0.641 0.609,-0.73 H 0.62 c 0.859,-1.03 2.09,-2 3.66,-2.51 C 5.83,-3.811 7.72,-3.9 9.91,-3.391 9.28,-2.36 8.229,-0.66 7.77,0.71 7.6,1.21 7.439,1.85 7.24,2.59 6.819,4.17 6.26,6.12 5.37,7.649 4.56,9.06 3.7,9.84 2.229,10.35 c -0.04,0.009 -0.08,0.009 -0.129,0.02 -1.08,0.37 -2.14,0.51 -3.11,0.51 -1.81,0 -3.33,-0.49 -4.16,-0.84 H -5.181 C -4.351,8.58 -3.73,6.95 -3.24,5.59 -3,4.91 -2.79,4.319 -2.601,3.859 -2.03,2.51 -0.67,0.77 -0.01,-0.021 Z" style="fill-opacity: 1; fill-rule: nonzero; stroke: none; fill: rgb(255, 193, 7);" id="path598"/>
        </g>
        <g id="g600" transform="matrix(1.333333, 0, 0, -1.333333, -36.02523, 314.413147)"/>
        <g id="g604" transform="matrix(1.333333, 0, 0, -1.333333, 554.082214, 301.946991)"/>
        <g id="g608" transform="matrix(1.333333, 0, 0, -1.333333, 144.614761, 313.880615)"/>
        <g id="g612" transform="matrix(1.333333, 0, 0, -1.333333, 111.641434, 313.880615)"/>
        <g id="g616" transform="matrix(1.333333, 0, 0, -1.333333, 128.134903, 313.880615)"/>
        <g id="g620" transform="matrix(1.333333, 0, 0, -1.333333, 29.215034, 313.880615)"/>
        <g id="g624" transform="matrix(1.333333, 0, 0, -1.333333, 95.16156, 313.880615)"/>
        <g id="g628" transform="matrix(1.333333, 0, 0, -1.333333, 62.18824, 313.880615)"/>
        <g id="g632" transform="matrix(1.333333, 0, 0, -1.333333, 257.974762, 315.160492)">
          <path d="m 0,0 c -0.95,0.79 -2.46,2.141 -3.26,3.37 -0.29,0.441 -0.61,1.021 -0.99,1.691 -0.79,1.419 -1.77,3.179 -2.94,4.49 -1.07,1.21 -2.03,1.75 -3.52,1.989 -0.04,0 -0.08,-0.01 -0.12,0 -3.17,0.431 -5.82,-0.89 -6.99,-1.62 h -0.01 c 1.04,-1.31 1.93,-2.819 2.65,-4.079 0.37,-0.62 0.69,-1.181 0.96,-1.591 0.82,-1.21 2.54,-2.659 3.39,-3.319 V 0.96 c 0.08,-0.069 0.16,-0.14 0.23,-0.189 0.14,-0.101 0.23,-0.18 0.28,-0.22 0.08,-0.061 0.17,-0.131 0.25,-0.191 l 0.01,-0.009 C -7.89,-1.33 -4.16,-2.29 0,0" style="fill-opacity: 1; fill-rule: nonzero; stroke: none; fill: rgb(255, 193, 7);" id="path634"/>
        </g>
        <g id="g636" transform="matrix(1.333333, 0, 0, -1.333333, 259.681824, 313.972992)">
          <path d="M 0,0 C 0.08,-0.07 0.17,-0.141 0.23,-0.19 0.37,-0.3 0.46,-0.37 0.51,-0.41 0.59,-0.48 0.68,-0.54 0.76,-0.61 L 0.77,-0.62 C 2.92,-2.32 6.63,-3.32 10.82,-1.09 9.87,-0.271 8.38,1.08 7.6,2.319 7.31,2.77 7,3.35 6.63,4.029 5.86,5.45 4.9,7.22 3.75,8.55 c -1.06,1.229 -2.01,1.769 -3.5,2.03 -0.04,0 -0.08,-0.011 -0.13,0 -0.44,0.06 -0.87,0.09 -1.29,0.09 -2.55,0 -4.63,-1.05 -5.63,-1.66 L -6.81,9 C -5.79,7.689 -4.92,6.18 -4.22,4.91 -3.86,4.279 -3.56,3.72 -3.29,3.31 -2.5,2.09 -0.82,0.64 0,-0.03 Z" style="fill-opacity: 1; fill-rule: nonzero; stroke: none; fill: rgb(255, 193, 7);" id="path638"/>
        </g>
        <g id="g640" transform="matrix(1.333333, 0, 0, -1.333333, 292.85556, 312.84021)">
          <path d="M 0,0 C -0.21,0.771 -0.58,1.5 -0.881,2.24 -1.74,4.391 -1.94,6.8 -1.46,9.061 -2.37,9.101 -3.23,9.18 -4.131,8.97 -4.761,8.83 -5.381,8.62 -5.98,8.37 -6.351,8.21 -6.841,7.8 -7.24,7.73 -6.25,6.391 -5.421,4.86 -4.761,3.58 -4.421,2.94 -4.131,2.37 -3.87,1.95 -2.851,0.28 -1.29,-0.939 0.21,-2.149 0.149,-1.42 0.199,-0.71 0,0" style="fill-opacity: 1; fill-rule: nonzero; stroke: none; fill: rgb(255, 193, 7);" id="path642"/>
        </g>
        <g id="g644" transform="matrix(1.333333, 0, 0, -1.333333, 295.375153, 312.306335)">
          <path d="M 0,0 0.01,-0.021 C 0.58,0.7 1.21,1.33 1.85,1.87 2.53,2.42 3.22,2.87 3.84,3.25 4.45,3.6 4.99,3.92 5.42,4.17 6.06,4.529 6.77,5.06 7.4,5.529 8.04,6.01 8.7,6.41 9.06,6.67 L 9.03,6.68 c 0.08,0.049 0.159,0.099 0.21,0.139 0.13,0.08 0.21,0.141 0.25,0.171 0.08,0.05 0.16,0.1 0.239,0.14 v 0.01 c 0.531,0.299 1.021,0.639 1.421,1.04 0.49,0.37 0.84,0.82 1.17,1.299 0.67,0.991 1.04,2.191 1.22,4.13 C 12.97,13.6 12.25,13.58 11.52,13.569 10.74,13.55 9.97,13.47 9.24,13.51 8.72,13.529 8.03,13.6 7.29,13.6 5.71,13.609 3.56,13.47 1.85,12.609 1.04,12.229 0.39,11.77 -0.09,11.17 -0.57,10.569 -1.05,9.859 -1.311,8.92 -1.33,8.859 -1.33,8.81 -1.34,8.76 V 8.75 C -1.64,7.77 -1.811,6.779 -1.79,5.85 -1.8,4.93 -1.7,4.069 -1.48,3.3 -1.13,1.76 -0.44,0.649 0,0" style="fill-opacity: 1; fill-rule: nonzero; stroke: none; fill: rgb(255, 193, 7);" id="path646"/>
        </g>
        <g id="g648" transform="matrix(1.333333, 0, 0, -1.333333, -3.758297, 313.880615)"/>
        <g id="g652" transform="matrix(1.333333, 0, 0, -1.333333, 295.668091, 321.466461)">
          <path d="M 0,0 C 0.59,-1.98 1.74,-3.53 2.88,-4.58 3.47,-5.09 4.04,-5.51 4.55,-5.83 5.07,-6.15 5.561,-6.34 5.92,-6.49 L 5.931,-6.5 c 0.13,1.78 0.819,3.52 1.429,4.81 0.3,0.65 0.59,1.21 0.821,1.65 C 8.51,0.62 8.8,1.45 9.061,2.189 9.34,2.91 9.62,3.62 9.8,4.07 L 9.771,4.06 c 0.04,0.089 0.069,0.169 0.099,0.24 0.05,0.139 0.08,0.23 0.1,0.28 0.04,0.09 0.091,0.17 0.131,0.26 v 0.01 c 0.269,0.54 0.46,1.11 0.58,1.68 0.189,0.59 0.21,1.159 0.219,1.77 -0.04,1.21 -0.39,2.44 -1.379,4.13 C 9.07,12.1 8.49,11.66 7.91,11.229 7.26,10.77 6.681,10.26 6.061,9.87 5.63,9.59 5.04,9.25 4.41,8.83 3.12,7.939 1.42,6.6 0.5,4.939 -0.42,3.39 -0.54,2.03 -0.06,0.14 -0.04,0.09 -0.01,0.06 0,0" style="fill-opacity: 1; fill-rule: nonzero; stroke: none; fill: rgb(255, 193, 7);" id="path654"/>
        </g>
        <g id="g656" transform="matrix(1.333333, 0, 0, -1.333333, 375.627686, 330.066742)">
          <path d="m 0,0 c 1.421,-0.71 3.171,-1.12 5.431,-0.91 -0.47,1.09 -1.22,2.931 -1.47,4.35 -0.091,0.52 -0.16,1.18 -0.25,1.94 -0.19,1.63 -0.5,3.6 -1.2,5.28 -0.651,1.52 -1.45,2.35 -2.901,3.08 -0.04,0.02 -0.08,0.02 -0.12,0.04 -1.45,0.67 -2.889,0.88 -4.149,0.88 -1.41,0 -2.58,-0.27 -3.28,-0.48 h -0.01 c 0.729,-1.54 1.21,-3.23 1.58,-4.63 0.18,-0.69 0.33,-1.31 0.479,-1.779 0.451,-1.381 1.601,-3.25 2.161,-4.101 L -3.72,3.69 C -3.67,3.6 -3.609,3.521 -3.569,3.46 -3.479,3.32 -3.409,3.22 -3.38,3.17 -3.329,3.08 -3.27,2.99 -3.22,2.9 L -3.21,2.89 C -2.51,1.76 -1.409,0.73 0,0" style="fill-opacity: 1; fill-rule: nonzero; stroke: none; fill: rgb(255, 193, 7);" id="path658"/>
        </g>
        <g id="g660" transform="matrix(1.333333, 0, 0, -1.333333, 399.881653, 338.346741)">
          <path d="M 0,0 0.01,0.021 C 0.07,-0.07 0.14,-0.17 0.18,-0.24 0.29,-0.4 0.37,-0.51 0.41,-0.57 0.47,-0.65 0.54,-0.75 0.61,-0.84 L 0.62,-0.85 C 1.06,-1.44 1.65,-2.04 2.37,-2.56 3.1,-3.05 3.96,-3.52 4.93,-3.81 6.86,-4.4 9.2,-4.46 11.56,-3.53 10.59,-2.67 9.14,-1.07 8.53,0.25 V 0.26 C 8.3,0.73 8.07,1.36 7.83,2.1 7.31,3.65 6.75,5.53 6.12,7.09 5.521,8.48 4.96,9.24 3.89,9.87 3.86,9.88 3.82,9.89 3.79,9.9 2.67,10.57 1.49,10.85 0.35,11.021 -0.76,11.15 -1.82,11.15 -2.47,11.08 H -2.479 C -2.22,9.46 -2.16,7.73 -2.09,6.29 -2.05,5.57 -2.01,4.93 -1.94,4.43 -1.83,3.72 -1.52,2.85 -1.15,2.03 -0.77,1.21 -0.31,0.48 0,0" style="fill-opacity: 1; fill-rule: nonzero; stroke: none; fill: rgb(255, 193, 7);" id="path662"/>
        </g>
        <g id="g664" transform="matrix(1.333333, 0, 0, -1.333333, 320.054779, 334.253021)">
          <path d="M 0,0 C 0.18,-1.58 0.55,-3.61 1.43,-5.29 1.84,-6.03 2.29,-6.601 2.851,-7.08 3.4,-7.55 4.07,-7.94 4.9,-8.181 4.95,-8.2 5,-8.2 5.05,-8.21 5.94,-8.471 6.811,-8.65 7.641,-8.681 8.46,-8.69 9.23,-8.61 9.92,-8.49 c 1.4,0.2 2.46,0.76 3.101,1.09 l 0.019,0.009 C 11.92,-6.07 11.07,-4.55 10.45,-3.2 10.141,-2.54 9.88,-1.96 9.66,-1.521 9.33,-0.87 8.811,-0.19 8.32,0.51 7.84,1.2 7.38,1.819 7.08,2.2 V 2.17 C 7.021,2.25 6.96,2.33 6.92,2.39 6.82,2.51 6.75,2.6 6.71,2.649 6.66,2.72 6.601,2.8 6.54,2.88 H 6.53 C 6.16,3.38 5.75,3.91 5.25,4.33 5.01,4.55 4.74,4.739 4.46,4.92 4.2,5.12 3.91,5.3 3.61,5.46 3.311,5.609 2.98,5.739 2.63,5.83 2.3,5.96 1.96,6.06 1.57,6.13 0.79,6.229 -0.04,6.31 -1.06,6.26 -0.93,5.689 -0.78,4.96 -0.62,4.22 -0.45,3.47 -0.25,2.68 -0.17,1.96 -0.12,1.41 -0.07,0.76 0,0" style="fill-opacity: 1; fill-rule: nonzero; stroke: none; fill: rgb(255, 193, 7);" id="path666"/>
        </g>
        <g id="g668" transform="matrix(1.333333, 0, 0, -1.333333, 345.25528, 345.972992)">
          <path d="M 0,0 C 0.05,0 0.1,0.01 0.149,0.02 1.979,0.05 3.62,0.46 4.91,1.18 5.55,1.52 6.1,1.87 6.56,2.2 7.01,2.56 7.37,2.91 7.63,3.189 H 7.649 C 6.12,4.04 4.83,5.33 3.85,6.399 3.35,6.93 2.939,7.41 2.6,7.75 1.59,8.76 -0.181,10.04 -0.95,10.569 V 10.54 c -0.08,0.05 -0.16,0.109 -0.22,0.149 -0.141,0.101 -0.23,0.17 -0.28,0.201 -0.08,0.06 -0.16,0.13 -0.24,0.19 H -1.7 c -1.04,0.81 -2.34,1.29 -3.821,1.52 -1.489,0.14 -3.109,-0.06 -5.049,-0.94 0.34,-0.48 0.81,-1.08 1.29,-1.7 C -8.8,9.33 -8.311,8.64 -7.971,7.99 -7.721,7.5 -7.431,6.92 -7.09,6.24 -6.36,4.819 -5.36,3.05 -4.05,1.72 -2.84,0.58 -1.721,0.1 0,0" style="fill-opacity: 1; fill-rule: nonzero; stroke: none; fill: rgb(255, 193, 7);" id="path670"/>
        </g>
        <g id="g672" transform="matrix(1.333333, 0, 0, -1.333333, 306.415558, 334.84021)">
          <path d="M 0,0 C 0.31,-0.72 0.83,-1.29 1.51,-1.96 1.55,-2 1.6,-2.02 1.64,-2.06 2.35,-2.77 3.189,-3.2 3.97,-3.609 4.76,-4.02 5.55,-4.25 6.29,-4.399 7.02,-4.55 7.689,-4.63 8.27,-4.649 8.859,-4.64 9.359,-4.59 9.729,-4.54 H 9.75 C 9.08,-2.93 8.83,-1.12 8.729,0.33 8.68,1.04 8.64,1.66 8.609,2.16 8.54,2.86 8.39,3.771 8.22,4.561 8.05,5.351 7.899,6.07 7.83,6.561 L 7.81,6.53 C 7.8,6.63 7.779,6.73 7.77,6.8 7.739,6.95 7.729,7.061 7.72,7.11 7.699,7.2 7.689,7.3 7.67,7.391 V 7.4 C 7.62,7.69 7.56,7.99 7.479,8.271 7.409,8.57 7.33,8.88 7.229,9.17 7.13,9.45 7.01,9.73 6.859,9.99 6.72,10.26 6.59,10.55 6.409,10.8 5.67,11.8 4.71,12.68 2.939,13.561 2.72,13.04 2.529,12.391 2.26,11.65 1.989,10.9 1.76,10.13 1.479,9.48 1.25,8.99 0.989,8.391 0.68,7.71 0.33,6.94 0.06,6.11 -0.181,5.18 -0.4,4.28 -0.58,3.24 -0.521,2.32 -0.471,1.45 -0.311,0.7 0,0" style="fill-opacity: 1; fill-rule: nonzero; stroke: none; fill: rgb(255, 193, 7);" id="path674"/>
        </g>
        <g id="g676" transform="matrix(1.333333, 0, 0, -1.333333, 417.227936, 342.066742)">
          <path d="M 0,0 V 0.021 C 0.08,-0.05 0.17,-0.13 0.23,-0.18 0.37,-0.3 0.471,-0.39 0.521,-0.43 0.601,-0.5 0.69,-0.57 0.771,-0.64 L 0.78,-0.65 C 2.99,-2.45 7,-3.62 11.57,-1.05 10.45,-0.3 8.771,0.98 7.94,2.18 7.63,2.61 7.311,3.2 6.931,3.87 6.141,5.3 5.2,7.07 4.141,8.4 3.181,9.67 2.33,10.23 1,10.561 0.971,10.57 0.931,10.561 0.891,10.57 0.29,10.72 -0.31,10.79 -0.88,10.79 H -1.09 C -1.71,10.8 -2.29,10.75 -2.83,10.64 -3.93,10.41 -4.8,10.13 -5.39,9.86 H -5.399 C -4.8,8.41 -4.279,6.73 -3.77,5.4 -3.529,4.73 -3.3,4.13 -3.08,3.68 -2.46,2.33 -0.84,0.75 0,0" style="fill-opacity: 1; fill-rule: nonzero; stroke: none; fill: rgb(255, 193, 7);" id="path678"/>
        </g>
        <g id="g680" transform="matrix(1.333333, 0, 0, -1.333333, 360.708496, 341.160492)">
          <path d="M 0,0 C 0.74,-0.029 1.51,0.091 2.36,0.45 2.41,0.471 2.439,0.5 2.49,0.521 4.31,1.21 5.66,2.44 6.61,3.551 7.5,4.74 8.07,5.79 8.28,6.521 L 8.29,6.54 C 6.55,6.71 4.82,7.33 3.51,7.881 2.86,8.15 2.26,8.45 1.81,8.631 1.14,8.91 0.29,9.141 -0.49,9.33 c -0.77,0.221 -1.52,0.42 -2,0.561 L -2.48,9.86 c -0.09,0.031 -0.19,0.05 -0.26,0.071 -0.15,0.04 -0.25,0.059 -0.31,0.08 -0.08,0.019 -0.18,0.05 -0.27,0.069 h -0.01 c -0.58,0.17 -1.231,0.33 -1.86,0.36 -0.621,0.01 -1.3,0.01 -1.97,-0.12 C -7.5,10.261 -7.83,10.15 -8.17,10.011 -8.53,9.91 -8.89,9.761 -9.25,9.57 -9.61,9.391 -9.97,9.141 -10.35,8.87 -10.74,8.62 -11.13,8.33 -11.54,7.98 -11.07,7.65 -10.44,7.19 -9.8,6.7 -9.17,6.25 -8.51,5.74 -8,5.23 -7.62,4.83 -7.16,4.36 -6.64,3.811 -5.51,2.65 -3.99,1.32 -2.25,0.511 -1.47,0.181 -0.74,0.021 0,0" style="fill-opacity: 1; fill-rule: nonzero; stroke: none; fill: rgb(255, 193, 7);" id="path682"/>
        </g>
        <g id="g684" transform="matrix(1.333333, 0, 0, -1.333333, 530.868591, 314.000336)"/>
        <g id="g688" transform="matrix(1.333333, 0, 0, -1.333333, 547.06781, 313.919678)"/>
        <g id="g692" transform="matrix(1.333333, 0, 0, -1.333333, 514.627686, 314.066742)">
          <path d="M -0.686 0.529 C -0.425 0.309 -1.24 10.678 -1.811 10.643 C -4.112 10.499 -5.956 9.537 -6.869 8.96 L -6.89 8.96 C -5.869 7.65 -4.989 6.14 -4.279 4.88 C -3.93 4.25 -3.609 3.69 -3.34 3.28 C -2.722 2.347 -1.564 1.271 -0.686 0.529 Z" style="fill-opacity: 1; fill-rule: nonzero; stroke: none; fill: rgb(255, 193, 7);" id="path694"/>
        </g>
        <g id="g696" transform="matrix(1.333333, 0, 0, -1.333333, 434.415558, 342.092743)">
          <path d="M 0,0 C 0.09,-0.061 0.189,-0.11 0.26,-0.16 0.43,-0.25 0.54,-0.311 0.6,-0.341 0.689,-0.391 0.8,-0.45 0.899,-0.511 1.55,-0.851 2.3,-1.181 3.159,-1.33 4.01,-1.46 4.97,-1.5 5.97,-1.391 7.96,-1.12 10.199,-0.17 12.04,1.79 10.689,2.13 8.68,2.819 7.529,3.83 7.12,4.18 6.64,4.649 6.109,5.199 5,6.33 3.689,7.899 2.449,9 1.31,9.989 0.43,10.449 -0.87,10.55 c -0.04,0 -0.07,-0.021 -0.11,-0.01 h -0.25 c -0.25,0 -0.5,-0.011 -0.741,-0.03 -0.33,0 -0.639,-0.031 -0.949,-0.08 C -3.53,10.34 -4.11,10.17 -4.63,9.97 -5.67,9.56 -6.62,9.109 -7.16,8.739 h -0.01 c 0.949,-1.309 1.8,-2.88 2.51,-4.09 0.359,-0.62 0.689,-1.17 0.97,-1.569 C -2.851,1.899 -0.971,0.489 0,-0.03 Z" style="fill-opacity: 1; fill-rule: nonzero; stroke: none; fill: rgb(255, 193, 7);" id="path698"/>
        </g>
        <g id="g700" transform="matrix(1.333333, 0, 0, -1.333333, 474.908997, 298.986084)">
          <path d="M 0,0 C -0.45,2.31 -2.03,4.68 -4.4,6.22 -4.37,5.52 -4.471,4.539 -4.62,3.649 -4.75,2.76 -5.061,1.869 -5.45,1.21 -5.721,0.729 -6.12,0.189 -6.58,-0.4 c -0.49,-0.621 -1.15,-1.311 -1.761,-1.941 -0.609,-0.649 -1.199,-1.26 -1.79,-1.83 -0.519,-0.519 -0.859,-0.93 -1.13,-1.34 -0.29,-0.42 -0.45,-0.819 -0.519,-1.29 -0.01,-0.029 0,-0.05 -0.01,-0.08 -0.16,-0.489 -0.11,-0.96 -0.12,-1.409 -0.021,-0.44 0.109,-0.891 0.18,-1.311 0.059,-0.42 0.179,-0.82 0.299,-1.2 0.13,-0.38 0.191,-0.699 0.29,-0.96 v -0.01 c 1.55,0.191 3.13,0.491 4.561,0.85 0.72,0.181 1.3,0.391 1.75,0.591 0.659,0.309 1.46,0.88 2.119,1.55 0.631,0.67 1.19,1.429 1.53,1.95 h -0.03 c 0.07,0.1 0.15,0.21 0.19,0.29 0.09,0.17 0.161,0.3 0.191,0.359 0.059,0.111 0.119,0.22 0.18,0.33 l 0.009,0.01 C 0.119,-4.431 0.55,-2.301 0,0" style="fill-opacity: 1; fill-rule: nonzero; stroke: none; fill: rgb(255, 193, 7);" id="path702"/>
        </g>
        <g id="g704" transform="matrix(1.333333, 0, 0, -1.333333, 482.028748, 313.827148)">
          <path d="M 0,0 V 0.03 C 0.08,-0.04 0.17,-0.109 0.229,-0.159 0.37,-0.27 0.47,-0.34 0.51,-0.38 0.6,-0.449 0.68,-0.52 0.77,-0.59 c 1.27,-1.019 3.11,-1.779 5.259,-1.779 1.521,0 3.191,0.38 4.931,1.319 C 9.989,-0.26 8.47,1.101 7.67,2.33 7.39,2.78 7.069,3.36 6.699,4.03 5.92,5.45 4.96,7.23 3.83,8.561 2.79,9.78 1.859,10.341 0.41,10.601 0.359,10.61 0.33,10.601 0.279,10.61 -0.32,10.681 -2.96,10.54 -3.301,10.54 -2.971,10.21 -2.931,9.71 -2.92,9.25 -2.9,7.641 -3.24,6.021 -3.91,4.561 -2.771,2.811 -1.63,1.341 0,0" style="fill-opacity: 1; fill-rule: nonzero; stroke: none; fill: rgb(255, 193, 7);" id="path706"/>
        </g>
        <g id="g-4" transform="matrix(1.333333, 0, 0, -1.333333, 627.445068, 315.040924)"/>
        <g id="g-5" transform="matrix(1.333333, 0, 0, -1.333333, 594.471741, 315.040924)"/>
        <g id="g-9" transform="matrix(1.333333, 0, 0, -1.333333, 563.937866, 314.374268)"/>
        <g id="g-13" transform="matrix(1.333333, 0, 0, -1.333333, 629.178162, 313.841736)"/>
        <g id="g-16" transform="matrix(1.333333, 0, 0, -1.333333, 596.204834, 313.841736)"/>
      </g>
    </g>
  </g>
</svg>