<?xml version="1.0" encoding="utf-8"?>
<svg viewBox="0 0 126 126" xmlns="http://www.w3.org/2000/svg">
  <path d="M 122.922 59.684 C 119.191 10.686 60.087 -15.661 22.657 18.36 C 16.955 23.542 12.26 29.817 8.916 36.76 C 4.962 44.97 3.229 53.708 3 62.772 M 22.658 107.185 C 46.153 127.549 79.847 127.54 103.343 107.185" style="fill: rgb(216, 216, 216); stroke: rgb(255, 255, 255); fill-opacity: 0; stroke-linecap: round; stroke-width: 6px;" transform="matrix(-1, 0, 0, -1, 125.921997, 125.454842)"/>
  <path d="M 6.889 42.683 L 31.748 42.796 L 58.741 59.874 C 60.218 57.916 62.519 57.23 64.828 58.053 L 96.778 25.807 C 98.08 24.306 100.44 26.06 99.096 27.621 L 67.029 59.91 C 70.54 65.665 61.988 70.826 58.49 65.058 L 3.353 65.259" style="stroke: rgb(255, 255, 255); stroke-linecap: round; stroke-linejoin: round; fill: none; stroke-width: 6px;"/>
</svg>